<svg width="32" height="32" viewBox="0 0 32 32" fill="none" xmlns="http://www.w3.org/2000/svg">
<rect x="12.847" y="23.7357" width="1.13916" height="0.798889" fill="#FF0000"/>
<rect x="7.0011" y="19.7124" width="0.926819" height="0.849579" fill="#2400FF"/>
<rect x="17.4478" y="1.98257" width="4.95215" height="10.068" fill="#00FF47"/>
<path d="M20.3198 16.3479L16.4123 12.0045L24.2272 12.0045L20.3198 16.3479Z" fill="#00FF47"/>
<path d="M11.3846 24.9763C10.9961 25.6228 10.059 25.6228 9.67041 24.9763L7.44701 21.2767C7.04644 20.6102 7.52651 19.7616 8.30413 19.7616L12.7509 19.7616C13.5285 19.7616 14.0086 20.6102 13.608 21.2767L11.3846 24.9763Z" fill="#2400FF"/>
<path d="M15.136 29.747L11.0783 24.1401L19.1938 24.1401L15.136 29.747Z" fill="#FF0000"/>
<rect x="8.60452" y="1.98257" width="3.84598" height="19.1128" fill="#2400FF"/>
<rect x="13.1505" y="1.60796" width="4.2973" height="22.5978" fill="#FF0000"/>
<circle cx="20.7789" cy="23.458" r="4.48694" fill="#FFC700"/>
<path d="M20.8528 26.8206V26.22C21.3362 26.1663 21.6657 25.9539 21.8415 25.5828C21.9197 25.4217 21.9587 25.2386 21.9587 25.0335C21.9587 24.5794 21.7488 24.2205 21.3288 23.9568C21.2605 23.9178 21.0261 23.7981 20.6257 23.5979C20.2546 23.4173 20.0202 23.2268 19.9226 23.0266C19.8738 22.9192 19.8493 22.802 19.8493 22.6751C19.8493 22.304 20.0129 22.0428 20.3401 21.8914C20.4914 21.823 20.6526 21.7889 20.8235 21.7889C21.2629 21.7937 21.5632 21.9622 21.7243 22.2942L21.9807 22.1624C21.8049 21.7718 21.4704 21.5594 20.9773 21.5252C20.9333 21.5203 20.8918 21.5179 20.8528 21.5179V20.9319H20.6111V21.5325C20.1814 21.596 19.8713 21.7864 19.6809 22.1038C19.5783 22.2747 19.5271 22.4651 19.5271 22.6751C19.5271 23.095 19.7273 23.4295 20.1277 23.6785C20.1863 23.7176 20.4157 23.8348 20.8161 24.0301C21.197 24.2156 21.4411 24.4134 21.5486 24.6233C21.6072 24.7503 21.6364 24.887 21.6364 25.0335C21.6364 25.4974 21.4363 25.7903 21.0359 25.9124C20.9138 25.9466 20.7844 25.9637 20.6477 25.9637C20.2668 25.9588 19.9055 25.8391 19.5637 25.6048L19.4026 25.8465C19.7688 26.1053 20.1716 26.2347 20.6111 26.2347V26.8206H20.8528Z" fill="#141419"/>
<path fill-rule="evenodd" clip-rule="evenodd" d="M20.9128 26.8206C20.9128 26.8537 20.8859 26.8806 20.8528 26.8806H20.6111C20.5779 26.8806 20.5511 26.8537 20.5511 26.8206V26.2939C20.1222 26.2825 19.7274 26.1495 19.3679 25.8955C19.3414 25.8767 19.3346 25.8402 19.3526 25.8132L19.5138 25.5715C19.5227 25.5581 19.5366 25.5489 19.5523 25.5459C19.5681 25.5428 19.5844 25.5462 19.5976 25.5553C19.9304 25.7835 20.2802 25.8989 20.6481 25.9037C20.7794 25.9036 20.9029 25.8872 21.019 25.8548C21.2083 25.797 21.3458 25.7004 21.4368 25.5673C21.5282 25.4334 21.5764 25.257 21.5764 25.0335C21.5764 24.8957 21.549 24.768 21.4946 24.6496C21.3959 24.4577 21.1665 24.2675 20.7899 24.084C20.5895 23.9863 20.4317 23.908 20.3164 23.8491C20.2036 23.7915 20.1284 23.751 20.0952 23.729C19.6803 23.4706 19.4671 23.1183 19.4671 22.6751C19.4671 22.4549 19.521 22.2537 19.6294 22.0729C19.8229 21.7504 20.133 21.5544 20.5511 21.4814V20.9319C20.5511 20.8988 20.5779 20.8719 20.6111 20.8719H20.8528C20.8859 20.8719 20.9128 20.8988 20.9128 20.9319V21.4596C20.9355 21.4608 20.9588 21.4628 20.9827 21.4654C21.4931 21.5011 21.8491 21.7238 22.0354 22.1378C22.0485 22.1669 22.0365 22.2011 22.0081 22.2157L21.7518 22.3476C21.7374 22.355 21.7207 22.3563 21.7053 22.3511C21.69 22.346 21.6774 22.335 21.6704 22.3204C21.5947 22.1646 21.4876 22.049 21.3489 21.9712C21.2097 21.8931 21.0354 21.8513 20.8231 21.8489C20.6607 21.8489 20.5082 21.8813 20.365 21.946C20.2103 22.0176 20.0975 22.1136 20.0229 22.2327C19.9482 22.352 19.9093 22.4985 19.9093 22.6751C19.9093 22.7938 19.9321 22.9022 19.9769 23.0011C20.0656 23.1823 20.2845 23.3651 20.652 23.544C21.0515 23.7437 21.2884 23.8646 21.3586 23.9047L21.3608 23.906C21.7962 24.1794 22.0187 24.5566 22.0187 25.0335C22.0187 25.2462 21.9782 25.4384 21.8956 25.6087C21.7159 25.988 21.3839 26.2079 20.9128 26.273V26.8206ZM21.8415 25.5828C21.6657 25.9539 21.3362 26.1663 20.8528 26.22V26.8206H20.6111V26.2347C20.1716 26.2347 19.7688 26.1053 19.4026 25.8465L19.5637 25.6048C19.5803 25.6161 19.5969 25.6273 19.6136 25.6381C19.9406 25.8505 20.2853 25.959 20.6477 25.9637C20.7844 25.9637 20.9138 25.9466 21.0359 25.9124C21.4363 25.7903 21.6364 25.4974 21.6364 25.0335C21.6364 24.887 21.6072 24.7503 21.5486 24.6233C21.4411 24.4134 21.197 24.2156 20.8161 24.0301C20.4157 23.8348 20.1863 23.7176 20.1277 23.6785C19.7273 23.4295 19.5271 23.095 19.5271 22.6751C19.5271 22.4651 19.5783 22.2747 19.6809 22.1038C19.8713 21.7864 20.1814 21.596 20.6111 21.5325V20.9319H20.8528V21.5179C20.8918 21.5179 20.9333 21.5203 20.9773 21.5252C21.4704 21.5594 21.8049 21.7718 21.9807 22.1624L21.7243 22.2942C21.7174 22.2799 21.7102 22.2659 21.7027 22.2522C21.5371 21.948 21.244 21.7935 20.8235 21.7889C20.6526 21.7889 20.4914 21.823 20.3401 21.8914C20.0129 22.0428 19.8493 22.304 19.8493 22.6751C19.8493 22.802 19.8738 22.9192 19.9226 23.0266C20.0202 23.2268 20.2546 23.4173 20.6257 23.5979C21.0261 23.7981 21.2605 23.9178 21.3288 23.9568C21.7488 24.2205 21.9587 24.5794 21.9587 25.0335C21.9587 25.2386 21.9197 25.4217 21.8415 25.5828Z" fill="#141419"/>
<path fill-rule="evenodd" clip-rule="evenodd" d="M8.27901 1.15125C8.00287 1.15125 7.77901 1.3751 7.77901 1.65125V19.1512H6.5C6.3156 19.1512 6.14617 19.2527 6.05916 19.4153C5.97215 19.5779 5.98169 19.7752 6.08398 19.9286L8.08398 22.9286C8.23715 23.1584 8.54759 23.2204 8.77735 23.0673C9.00712 22.9141 9.0692 22.6037 8.91603 22.3739L7.43426 20.1512H8.27901C8.55515 20.1512 8.77901 19.9274 8.77901 19.6512V2.15125H12.337V19.6512L12.3156 23.1512H10.5C10.3094 23.1512 10.1354 23.2596 10.0513 23.4306C9.96722 23.6016 9.98765 23.8056 10.104 23.9565L10.6249 24.6323L10.5187 24.7779L9.58269 23.3739C9.42952 23.1441 9.11908 23.082 8.88932 23.2352C8.65955 23.3884 8.59747 23.6988 8.75064 23.9286L10.084 25.9286C10.1746 26.0645 10.326 26.1476 10.4893 26.1511C10.6527 26.1546 10.8074 26.0781 10.9038 25.9461L11.2608 25.4572L14.729 29.9565C14.8237 30.0793 14.9699 30.1512 15.125 30.1512C15.2801 30.1512 15.4263 30.0793 15.521 29.9565L17.4355 27.4729C18.3393 28.2096 19.4931 28.6513 20.75 28.6513C23.6495 28.6513 26 26.3008 26 23.4013C26 20.5018 23.6495 18.1513 20.75 18.1513C19.7599 18.1513 18.8338 18.4253 18.0435 18.9017V14.5895L19.8906 16.4989C19.9856 16.597 20.1165 16.6521 20.253 16.6512C20.3895 16.6504 20.5198 16.5938 20.6135 16.4946L24.8635 11.9946C25.0006 11.8494 25.0382 11.6367 24.9592 11.4533C24.8801 11.27 24.6996 11.1512 24.5 11.1512H22.75V1.65125C22.75 1.3751 22.5261 1.15125 22.25 1.15125H15.8968C15.6206 1.15125 15.3968 1.3751 15.3968 1.65125C15.3968 1.92739 15.6206 2.15125 15.8968 2.15125H17.0435V8.90125C17.0435 9.17739 17.2674 9.40125 17.5435 9.40125C17.8197 9.40125 18.0435 9.17739 18.0435 8.90125V2.15125H21.75V11.6512C21.75 11.9274 21.9739 12.1512 22.25 12.1512H23.34L20.2457 15.4276L18.0435 13.1513V10.2762C18.0435 10.0001 17.8197 9.77625 17.5435 9.77625C17.2674 9.77625 17.0435 10.0001 17.0435 10.2762V11.1512L17.043 11.3086V11.5391L17.0508 11.9844L17.0435 13.5558V19.6831C16.09 20.6337 15.5 21.9486 15.5 23.4013C15.5 24.681 15.9579 25.8538 16.7187 26.7647L15.125 28.8323L11.5167 24.1512H12.8125C13.0874 24.1512 13.3108 23.9293 13.3125 23.6543L13.337 19.6543L13.337 19.6512V2.15125H14.25C14.5261 2.15125 14.75 1.92739 14.75 1.65125C14.75 1.3751 14.5261 1.15125 14.25 1.15125H8.27901ZM18.0113 20.1512C17.0871 20.9309 16.5 22.0975 16.5 23.4013C16.5 25.7485 18.4028 27.6513 20.75 27.6513C23.0972 27.6513 25 25.7485 25 23.4013C25 21.0541 23.0972 19.1513 20.75 19.1513C19.7217 19.1513 18.7786 19.5165 18.0435 20.1243V20.1512H18.0113Z" fill="#141419"/>
</svg>
